{"title":"Solo.A.Star.Wars.Story.2018.720p.BRRip.XviD.AC3-XVID","magnet":"magnet:?xt=urn:btih:a5413ccc25fa55a82ea2d1149854ad9831f2db59&dn=Solo.A.Star.Wars.Story.2018.720p.BRRip.XviD.AC3-XVID&tr=udp%3A%2F%2Ftracker.leechers-paradise.org%3A6969&tr=udp%3A%2F%2Fzer0day.ch%3A1337&tr=udp%3A%2F%2Fopen.demonii.com%3A1337&tr=udp%3A%2F%2Ftracker.coppersurfer.tk%3A6969&tr=udp%3A%2F%2Fexodus.desync.com%3A6969","uploader":"brugovi","categoryP":"video","categoryS":"hd___movies","size":"4202718348","seeders":"0","leechers":"5","description":"Solo.A.Star.Wars.Story.2018.720p.BRRip.XviD.AC3-XVID\r\n\r\nSolo: A Star Wars Story (2018)\r\n                     <a href=\"\nhttps://www.imdb.com/title/tt3778644/\" rel=\"nofollow\" target=\"_NEW\">\nhttps://www.imdb.com/title/tt3778644/</a>\r\n\r\nGeneral\r\nFormat                         : AVI\r\nFormat/Info                    : Audio Video Interleave\r\nFormat profile                 : OpenDML\r\nFile size                      : 3.91 GiB\r\nDuration                       : 2 h 14 min\r\nOverall bit rate               : 4 158 kb/s\r\n\r\nVideo\r\nFormat                         : MPEG-4 Visual\r\nFormat settings, Matrix        : Default (H.263)\r\nCodec ID                       : XVID\r\nCodec ID/Hint                  : XviD\r\nDuration                       : 2 h 14 min\r\nBit rate                       : 3 507 kb/s\r\nWidth                          : 1 280 pixels\r\nHeight                         : 536 pixels\r\nDisplay aspect ratio           : 2.40:1\r\nFrame rate                     : 23.976 (24000/1001) FPS\r\nColor space                    : YUV\r\nChroma subsampling             : 4:2:0\r\nBit depth                      : 8 bits\r\nScan type                      : Progressive\r\nCompression mode               : Lossy\r\nBits/(Pixel*Frame)             : 0.213\r\nStream size                    : 3.30 GiB (84%)\r\n\r\nAudio\r\nFormat                         : AC-3\r\nFormat/Info                    : Audio Coding 3\r\nCodec ID                       : 2000\r\nDuration                       : 2 h 14 min\r\nBit rate mode                  : Constant\r\nBit rate                       : 640 kb/s\r\nChannel(s)                     : 6 channels\r\nChannel positions              : Front: L C R, Side: L R, LFE\r\nSampling rate                  : 48.0 kHz\r\nFrame rate                     : 31.250 FPS (1536 SPF)\r\nBit depth                      : 16 bits\r\nCompression mode               : Lossy\r\nStream size                    : 617 MiB (15%)\r\nAlignment                      : Aligned on interleaves\r\nInterleave, duration           : 42  ms (1.00 video frame)\r\nInterleave, preload duration   : 512  ms","last_updated":"2018-09-11T12:18:00.562Z","parsed":{"xt":"urn:btih:a5413ccc25fa55a82ea2d1149854ad9831f2db59","dn":"Solo.A.Star.Wars.Story.2018.720p.BRRip.XviD.AC3-XVID","tr":["udp://exodus.desync.com:6969","udp://open.demonii.com:1337","udp://tracker.coppersurfer.tk:6969","udp://tracker.leechers-paradise.org:6969","udp://zer0day.ch:1337"],"infoHash":"a5413ccc25fa55a82ea2d1149854ad9831f2db59","infoHashBuffer":{"type":"Buffer","data":[165,65,60,204,37,250,85,168,46,162,209,20,152,84,173,152,49,242,219,89]},"name":"Solo.A.Star.Wars.Story.2018.720p.BRRip.XviD.AC3-XVID","announce":["udp://exodus.desync.com:6969","udp://open.demonii.com:1337","udp://tracker.coppersurfer.tk:6969","udp://tracker.leechers-paradise.org:6969","udp://zer0day.ch:1337"],"urlList":[]}}